# xmcd CD database file
#
# Track frame offsets:
#	150
#	13320
#	29715
#	45615
#	65040
#	75692
#	86162
#	101752
#	112047
#	124725
#	134982
#	152142
#	165330
#	178707
#	196302
#
# Disc length: 2929 seconds
#
# Revision: 3
# Processed by: cddbd v1.5.1PL0 Copyright (c) Steve Scherf et al.
# Submitted via: CDex 1.51
#
DISCID=db0b6f0f
DTITLE=Various Artist - The Small Groups
DYEAR=1900
DGENRE=Jazz
TTITLE0=Harry James Sextet - Pagan Love Song 
TTITLE1=Harry James Sextet - Cotton Tail 
TTITLE2=Sonny Dunham Sextet - Blues In F 
TTITLE3=Sonny Dunham Sextet - Tin Root Blues 
TTITLE4=Gene Krupa Trio - Limehouse Blues
TTITLE5=Bob Crosby Band - I Got Rhythm 
TTITLE6=Johnny Dankworth Band - Inside Out 
TTITLE7=Charlie Barnet Band - G-7 Mambo 
TTITLE8=Benny Goodman Band - Three Little Words 
TTITLE9=Woody Herman's Woodchoppers - Gung Ho 
TTITLE10=Dorseyland Band - Royal Garden Blues 
TTITLE11=Dorseyland Band - Sweet Lorraine 
TTITLE12=Al Donahue Band - Hungarian Rhapsody No. 2 
TTITLE13=Artie Shaw Gramercy Five - Dr. Livingston I Presume 
TTITLE14=Del Simmons Band - Sweet Georgia Brown 
EXTD=
EXTT0=
EXTT1=
EXTT2=
EXTT3=
EXTT4=
EXTT5=
EXTT6=
EXTT7=
EXTT8=
EXTT9=
EXTT10=
EXTT11=
EXTT12=
EXTT13=
EXTT14=
PLAYORDER=
